<?xml version="1.0" encoding="UTF-8"?>
<svg id="Layer_1_copy" data-name="Layer 1 copy" xmlns="http://www.w3.org/2000/svg" viewBox="0 0 200 200">
  <defs>
    <style>
      .cls-1 {
        stroke-width: 0px;
      }
    </style>
  </defs>
  <path class="cls-1" d="M140,40c-16.34,0-30.87,9.45-40,24.04-9.13-14.59-23.66-24.04-40-24.04-27.57,0-50,26.92-50,60s22.43,60,50,60c16.34,0,30.87-9.45,40-24.04,9.13,14.59,23.66,24.04,40,24.04,27.57,0,50-26.92,50-60s-22.43-60-50-60ZM60,140c-16.54,0-30-17.94-30-40s13.46-40,30-40,30,17.94,30,40-13.46,40-30,40ZM140,140c-16.54,0-30-17.94-30-40s13.46-40,30-40,30,17.94,30,40-13.46,40-30,40Z"/>
</svg>