<?xml version="1.0" encoding="UTF-8"?>
<svg id="Layer_1_copy" data-name="Layer 1 copy" xmlns="http://www.w3.org/2000/svg" viewBox="0 0 200 200">
  <defs>
    <style>
      .cls-1 {
        stroke-width: 0px;
      }
    </style>
  </defs>
  <path class="cls-1" d="M150,40c-5.52,0-10,4.48-10,10v90h-64.77c43.65-46.04,44.22-88.02,44.22-90,0-5.52-4.48-10-10-10h-59.44c-5.52,0-10,4.48-10,10s4.48,10,10,10h48.06c-1.01,4.85-2.76,11.22-5.78,18.64-6.42,15.77-20.09,39.62-48.72,63.71-3.22,2.7-4.4,7.13-2.96,11.08s5.19,6.57,9.4,6.57h100c5.52,0,10-4.48,10-10V50c0-5.52-4.48-10-10-10Z"/>
</svg>