<?xml version="1.0" encoding="UTF-8"?>
<svg id="Layer_1_copy" data-name="Layer 1 copy" xmlns="http://www.w3.org/2000/svg" viewBox="0 0 200 200">
  <defs>
    <style>
      .cls-1 {
        stroke-width: 0px;
      }
    </style>
  </defs>
  <path class="cls-1" d="M184.85,41.25c-3.18-1.76-7.07-1.66-10.15.27-32.35,20.22-52.34,40.66-64.7,58.27v-49.79c0-3.64-1.97-6.98-5.15-8.75-3.18-1.76-7.07-1.66-10.15.27-32.35,20.22-52.34,40.67-64.7,58.28v-49.8c0-5.52-4.48-10-10-10s-10,4.48-10,10v100c0,5.52,4.48,10,10,10s10-4.48,10-10c0-.1.38-10.71,8.82-26.54,7.36-13.8,22.07-33.71,51.18-54.71v81.26c0,5.52,4.48,10,10,10s10-4.48,10-10c0-.1.38-10.71,8.82-26.54,7.36-13.8,22.07-33.71,51.18-54.71v81.26c0,5.52,4.48,10,10,10s10-4.48,10-10V50c0-3.64-1.97-6.98-5.15-8.75Z"/>
</svg>