<?xml version="1.0" encoding="UTF-8"?>
<svg id="Layer_1_copy" data-name="Layer 1 copy" xmlns="http://www.w3.org/2000/svg" viewBox="0 0 200 200">
  <defs>
    <style>
      .cls-1 {
        stroke-width: 0px;
      }
    </style>
  </defs>
  <path class="cls-1" d="M10,110h30v40c0,4.73,3.31,8.81,7.94,9.78,4.62.97,9.31-1.43,11.21-5.76.27-.62,26.07-58,80.84-88.08v84.06c0,5.52,4.48,10,10,10s10-4.48,10-10V50c0-3.35-1.68-6.48-4.47-8.33-2.79-1.85-6.33-2.18-9.42-.88-41.22,17.39-69.36,48.47-86.11,72.37v-63.16c0-5.52-4.48-10-10-10s-10,4.48-10,10v40H10c-5.52,0-10,4.48-10,10s4.48,10,10,10Z"/>
</svg>