<?xml version="1.0" encoding="UTF-8"?>
<svg id="Layer_1_copy" data-name="Layer 1 copy" xmlns="http://www.w3.org/2000/svg" viewBox="0 0 200 200">
  <defs>
    <style>
      .cls-1 {
        stroke-width: 0px;
      }
    </style>
  </defs>
  <path class="cls-1" d="M189.15,40.23c-4.58-1.01-9.25,1.31-11.23,5.57l-37.19,80.38-37.19-80.38c-1.64-3.54-5.18-5.8-9.08-5.8s-7.44,2.26-9.08,5.8l-43.58,94.2H12.55c-5.52,0-10,4.48-10,10s4.48,10,10,10h35.62s.02,0,.04,0c0,0,.02,0,.03,0h92.51c.44,0,.87-.04,1.3-.09.11-.01.21-.03.31-.05.38-.06.75-.14,1.11-.24.05-.01.1-.02.14-.04.42-.12.82-.28,1.21-.45.07-.03.14-.07.21-.1.33-.16.65-.33.96-.52.07-.04.14-.08.21-.13.35-.23.68-.47,1-.74.06-.05.12-.11.19-.17.26-.23.5-.47.74-.73.07-.08.14-.15.21-.23.27-.32.53-.65.76-1,.03-.05.06-.11.1-.16.21-.33.39-.67.56-1.02.02-.05.05-.08.07-.13l27.19-58.77v54.57c0,5.52,4.48,10,10,10s10-4.48,10-10V50c0-4.69-3.27-8.76-7.85-9.77ZM94.47,73.82l30.62,66.18h-61.24l30.62-66.18Z"/>
</svg>