<?xml version="1.0" encoding="UTF-8"?>
<svg id="Layer_1_copy" data-name="Layer 1 copy" xmlns="http://www.w3.org/2000/svg" viewBox="0 0 200 200">
  <defs>
    <style>
      .cls-1 {
        stroke-width: 0px;
      }
    </style>
  </defs>
  <path class="cls-1" d="M60.68,40.3c-5.36-1.35-10.79,1.89-12.14,7.25-1.69,6.68-15.98,66.01,1.4,91.84,9.59,14.25,25.03,20.61,50.07,20.61s40.48-6.36,50.07-20.61c17.38-25.83,3.09-85.16,1.4-91.84-1.35-5.35-6.78-8.6-12.14-7.25-5.35,1.35-8.6,6.79-7.25,12.14,5.52,21.91,10.77,61.85,1.4,75.78-2.77,4.12-7.92,11.78-33.48,11.78s-30.71-7.66-33.48-11.78c-9.37-13.93-4.12-53.87,1.4-75.78,1.35-5.35-1.89-10.79-7.25-12.14Z"/>
</svg>