<?xml version="1.0" encoding="UTF-8"?>
<svg id="Layer_1_copy" data-name="Layer 1 copy" xmlns="http://www.w3.org/2000/svg" viewBox="0 0 200 200">
  <defs>
    <style>
      .cls-1 {
        stroke-width: 0px;
      }
    </style>
  </defs>
  <path class="cls-1" d="M50,60h87.42c-1.74,4.61-4.64,10.58-9.48,17.52-10.93,15.65-34.09,39.38-82.41,63.53-4.94,2.47-6.94,8.48-4.47,13.42,1.75,3.5,5.28,5.53,8.95,5.53,1.5,0,3.03-.34,4.46-1.06,21.74-10.87,40.34-22.45,55.69-34.64l32.76,32.76c1.95,1.95,4.51,2.93,7.07,2.93s5.12-.98,7.07-2.93c3.91-3.91,3.91-10.24,0-14.14l-31.81-31.81c8.15-7.89,15.01-16,20.56-24.32,13.78-20.67,14.18-35.21,14.18-36.8,0-5.52-4.48-10-10-10H50c-5.52,0-10,4.48-10,10s4.48,10,10,10Z"/>
</svg>