<?xml version="1.0" encoding="UTF-8"?>
<svg id="Layer_1_copy" data-name="Layer 1 copy" xmlns="http://www.w3.org/2000/svg" viewBox="0 0 200 200">
  <defs>
    <style>
      .cls-1 {
        stroke-width: 0px;
      }
    </style>
  </defs>
  <path class="cls-1" d="M158.61,107.26c23.96-30.2,30.62-53.14,31.02-54.57.84-3.01.22-6.24-1.67-8.73-1.89-2.49-4.84-3.95-7.96-3.95H20c-5.52,0-10,4.48-10,10s4.48,10,10,10h65.11c-8.39,17.27-28.42,49.69-71.14,82.03-4.4,3.33-5.27,9.6-1.94,14.01,1.97,2.6,4.96,3.97,7.98,3.97,2.1,0,4.22-.66,6.03-2.03,15.8-11.96,28.74-23.93,39.3-35.29l26.85,33.57c1.97,2.46,4.88,3.75,7.81,3.75,2.1,0,4.23-.66,6.03-2.03,15.8-11.96,28.74-23.93,39.3-35.29l26.85,33.57c1.98,2.47,4.88,3.75,7.81,3.75,2.19,0,4.4-.72,6.24-2.19,4.31-3.45,5.01-9.74,1.56-14.06l-29.2-36.5ZM101.63,136.03l-23.02-28.78c16.41-20.69,24.71-37.96,28.43-47.26h58.06c-7.87,16.2-25.99,45.74-63.48,76.03Z"/>
</svg>