<?xml version="1.0" encoding="UTF-8"?>
<svg id="Layer_1_copy" data-name="Layer 1 copy" xmlns="http://www.w3.org/2000/svg" viewBox="0 0 200 200">
  <defs>
    <style>
      .cls-1 {
        stroke-width: 0px;
      }
    </style>
  </defs>
  <path class="cls-1" d="M150,13h0c-5.52,0-10,4.48-10,10,0,.85-.23,68.41-14.61,117H60V50c0-5.52-4.48-10-10-10s-10,4.48-10,10v100c0,5.52,4.48,10,10,10h68.06c-1.92,4.19-4,8.05-6.28,11.49-3.04,4.61-1.77,10.81,2.84,13.85,1.7,1.12,3.61,1.66,5.5,1.66,3.25,0,6.43-1.58,8.36-4.49,5.3-8.03,9.71-17.82,13.38-28.55.2-.47.36-.97.49-1.47,17.41-52.26,17.65-125.74,17.65-129.49,0-5.52-4.48-10-10-10Z"/>
</svg>