<?xml version="1.0" encoding="UTF-8"?>
<svg id="Layer_1_copy" data-name="Layer 1 copy" xmlns="http://www.w3.org/2000/svg" viewBox="0 0 200 200">
  <defs>
    <style>
      .cls-1 {
        stroke-width: 0px;
      }
    </style>
  </defs>
  <path class="cls-1" d="M160,23c0-5.52-4.48-10-10-10s-10,4.48-10,10c0,.85-.15,68.04-10.36,117h-19.64v-40c0-5.52-4.48-10-10-10s-10,4.48-10,10v40h-30V50c0-5.52-4.48-10-10-10s-10,4.48-10,10v100c0,5.52,4.48,10,10,10h74.5c-1.49,4.66-3.11,8.95-4.9,12.73-2.36,5-.22,10.95,4.78,13.31,1.38.65,2.83.96,4.26.96,3.75,0,7.34-2.12,9.05-5.73,3.75-7.95,6.87-17.63,9.46-28.26.12-.4.22-.81.29-1.22,12.38-51.83,12.56-125.05,12.56-128.78Z"/>
</svg>