<?xml version="1.0" encoding="UTF-8"?>
<svg id="Layer_1_copy" data-name="Layer 1 copy" xmlns="http://www.w3.org/2000/svg" viewBox="0 0 200 200">
  <defs>
    <style>
      .cls-1 {
        stroke-width: 0px;
      }
    </style>
  </defs>
  <path class="cls-1" d="M105.05,157.9c1.82,1.42,3.98,2.1,6.12,2.1,2.98,0,5.94-1.33,7.91-3.87,40.45-52.11,40.91-103.95,40.91-106.13,0-5.51-4.46-9.97-9.97-9.99h-.03c-5.5,0-9.97,4.46-10,9.96,0,.47-.66,47.45-36.71,93.89-3.39,4.36-2.59,10.64,1.77,14.03Z"/>
  <path class="cls-1" d="M43.87,157.9c1.82,1.42,3.98,2.1,6.12,2.1,2.98,0,5.94-1.33,7.91-3.87,40.45-52.11,40.91-103.95,40.91-106.13,0-5.51-4.46-9.97-9.97-9.99h-.03c-5.5,0-9.97,4.46-10,9.96,0,.47-.66,47.45-36.71,93.89-3.39,4.36-2.6,10.64,1.77,14.03Z"/>
</svg>