<?xml version="1.0" encoding="UTF-8"?>
<svg id="Layer_1_copy" data-name="Layer 1 copy" xmlns="http://www.w3.org/2000/svg" viewBox="0 0 200 200">
  <defs>
    <style>
      .cls-1 {
        stroke-width: 0px;
      }
    </style>
  </defs>
  <path class="cls-1" d="M128.28,142.43c3.91,3.9,10.24,3.9,14.14,0,23.39-23.39,23.39-61.46,0-84.85-23.39-23.39-61.46-23.39-84.85,0-23.39,23.39-23.39,61.46,0,84.85,1.88,1.88,4.42,2.93,7.07,2.93s5.2-1.05,7.07-2.93l62.74-62.75c9.04,15.33,6.98,35.45-6.18,48.6-3.91,3.91-3.9,10.24,0,14.14ZM65.54,120.32c-9.04-15.33-6.98-35.45,6.18-48.6,7.8-7.8,18.04-11.7,28.28-11.7,7.04,0,14.08,1.84,20.32,5.52l-54.78,54.78Z"/>
</svg>