<?xml version="1.0" encoding="UTF-8"?>
<svg id="Layer_1_copy" data-name="Layer 1 copy" xmlns="http://www.w3.org/2000/svg" viewBox="0 0 200 200">
  <defs>
    <style>
      .cls-1 {
        stroke-width: 0px;
      }
    </style>
  </defs>
  <path class="cls-1" d="M142.44,57.75s0,0,0,0,0,0,0,0c-23.39-23.38-61.45-23.38-84.84,0-23.39,23.39-23.39,61.46,0,84.85,11.7,11.7,27.06,17.55,42.43,17.55s30.73-5.85,42.43-17.55c23.39-23.39,23.39-61.45,0-84.84ZM71.72,71.88c7.8-7.8,18.04-11.7,28.28-11.7,7.04,0,14.07,1.84,20.32,5.52l-54.78,54.78c-9.04-15.33-6.98-35.45,6.18-48.6ZM128.28,128.45c-13.16,13.16-33.27,15.21-48.6,6.18l54.78-54.78c9.04,15.33,6.98,35.45-6.18,48.6Z"/>
</svg>