<?xml version="1.0" encoding="UTF-8"?>
<svg id="Layer_1_copy" data-name="Layer 1 copy" xmlns="http://www.w3.org/2000/svg" viewBox="0 0 200 200">
  <defs>
    <style>
      .cls-1 {
        stroke-width: 0px;
      }
    </style>
  </defs>
  <path class="cls-1" d="M100,187.33c5.52,0,10-4.48,10-10v-17.88c11.88-1.99,23.28-7.55,32.43-16.7,23.39-23.39,23.39-61.46,0-84.85-23.39-23.39-61.46-23.39-84.85,0-23.39,23.39-23.39,61.46,0,84.85,9.15,9.15,20.54,14.7,32.43,16.7v17.88c0,5.52,4.48,10,10,10ZM128.28,128.61c-13.16,13.16-33.27,15.21-48.6,6.18l54.78-54.78c9.04,15.33,6.98,35.45-6.18,48.6ZM71.72,72.05c7.8-7.8,18.04-11.7,28.28-11.7,7.04,0,14.07,1.84,20.32,5.52l-54.78,54.78c-9.04-15.33-6.98-35.45,6.18-48.6Z"/>
</svg>