<?xml version="1.0" encoding="UTF-8"?>
<svg id="Layer_1_copy" data-name="Layer 1 copy" xmlns="http://www.w3.org/2000/svg" viewBox="0 0 200 200">
  <defs>
    <style>
      .cls-1 {
        stroke-width: 0px;
      }
    </style>
  </defs>
  <path class="cls-1" d="M159.24,46.17c-1.55-3.74-5.19-6.17-9.24-6.17H50c-4.04,0-7.69,2.44-9.24,6.17-1.55,3.74-.69,8.04,2.17,10.9l42.93,42.93-42.93,42.93c-2.86,2.86-3.71,7.16-2.17,10.9,1.55,3.74,5.19,6.17,9.24,6.17h100c4.04,0,7.69-2.44,9.24-6.17,1.55-3.74.69-8.04-2.17-10.9l-42.93-42.93,42.93-42.93c2.86-2.86,3.71-7.16,2.17-10.9ZM125.86,140h-51.71l25.86-25.86,25.86,25.86ZM100,85.86l-25.86-25.86h51.71l-25.86,25.86Z"/>
</svg>