<?xml version="1.0" encoding="UTF-8"?>
<svg id="Layer_1_copy" data-name="Layer 1 copy" xmlns="http://www.w3.org/2000/svg" viewBox="0 0 200 200">
  <defs>
    <style>
      .cls-1 {
        stroke-width: 0px;
      }
    </style>
  </defs>
  <path class="cls-1" d="M189.01,45.67c-1.67-3.46-5.17-5.67-9.01-5.67H20c-3.84,0-7.35,2.2-9.01,5.67-1.67,3.46-1.2,7.58,1.2,10.58l35,43.75-35,43.75c-2.4,3-2.87,7.11-1.2,10.58,1.67,3.46,5.17,5.67,9.01,5.67h160c3.84,0,7.35-2.2,9.01-5.67,1.67-3.46,1.2-7.58-1.2-10.58l-35-43.75,35-43.75c2.4-3,2.87-7.11,1.2-10.58ZM100,133.99l-27.19-33.99,27.19-33.99,27.19,33.99-27.19,33.99ZM40.81,60h38.39l-19.19,23.99-19.19-23.99ZM40.81,140l19.19-23.99,19.19,23.99h-38.39ZM159.19,140h-38.39l19.19-23.99,19.19,23.99ZM140,83.99l-19.19-23.99h38.39l-19.19,23.99Z"/>
</svg>