<?xml version="1.0" encoding="UTF-8"?>
<svg id="Layer_1_copy" data-name="Layer 1 copy" xmlns="http://www.w3.org/2000/svg" viewBox="0 0 200 200">
  <defs>
    <style>
      .cls-1 {
        stroke-width: 0px;
      }
    </style>
  </defs>
  <path class="cls-1" d="M88.26,149.55v27.45c0,5.52,4.48,10,10,10s10-4.48,10-10v-27.45c19.78-1.34,32.3-6.97,40.89-18.13,18.39-23.88,3.45-78.09,1.68-84.2-1.53-5.31-7.08-8.36-12.38-6.83-5.31,1.53-8.36,7.08-6.83,12.38,4.71,16.28,11.31,53.94,1.68,66.44-2.66,3.46-8.2,10.66-35.04,10.66s-32.38-7.2-35.04-10.66c-8.76-11.37-4.29-45.7,1.68-66.44,1.53-5.31-1.52-10.85-6.83-12.38-5.3-1.53-10.85,1.52-12.38,6.83-1.76,6.1-16.7,60.32,1.68,84.2,8.59,11.16,21.11,16.79,40.89,18.13Z"/>
</svg>