<?xml version="1.0" encoding="UTF-8"?>
<svg id="Layer_1_copy" data-name="Layer 1 copy" xmlns="http://www.w3.org/2000/svg" viewBox="0 0 200 200">
  <defs>
    <style>
      .cls-1 {
        stroke-width: 0px;
      }
    </style>
  </defs>
  <path class="cls-1" d="M60.57,40.39c-5.31-1.52-10.85,1.55-12.37,6.86-1.75,6.1-16.55,60.28,1.66,84.14,5.09,6.67,11.57,11.36,20.13,14.35v31.26c0,5.52,4.48,10,10,10s10-4.48,10-10v-27.48c3.27.24,6.73.36,10.42.36,3.37,0,6.56-.1,9.58-.3v27.43c0,5.52,4.48,10,10,10s10-4.48,10-10v-30.97c8.98-2.97,15.72-7.76,20.97-14.65,18.22-23.86,3.41-78.04,1.67-84.14-1.52-5.31-7.06-8.38-12.36-6.86-5.31,1.52-8.38,7.05-6.86,12.36,5.93,20.76,10.36,55.11,1.67,66.5-2.63,3.45-8.11,10.62-34.66,10.62s-32.02-7.17-34.66-10.62c-8.7-11.39-4.26-45.74,1.67-66.49,1.52-5.31-1.55-10.85-6.86-12.37Z"/>
</svg>