<?xml version="1.0" encoding="UTF-8"?>
<svg id="Layer_1_copy" data-name="Layer 1 copy" xmlns="http://www.w3.org/2000/svg" viewBox="0 0 200 200">
  <defs>
    <style>
      .cls-1 {
        stroke-width: 0px;
      }
    </style>
  </defs>
  <path class="cls-1" d="M160,40h-40c-5.52,0-10,4.48-10,10s4.48,10,10,10h30v80h-14.39l-41.92-94.07c-1.61-3.61-5.19-5.93-9.13-5.93s-7.53,2.32-9.13,5.93l-44.56,100c-1.38,3.09-1.1,6.67.75,9.52s5,4.55,8.39,4.55h88.91c.07,0,.15,0,.22,0s.15,0,.22,0h30.65c5.52,0,10-4.48,10-10V50c0-5.52-4.48-10-10-10ZM55.4,140l29.16-65.43,29.16,65.43h-58.31Z"/>
</svg>